# xmcd
#
# Track frame offsets:
#	150
#	17909
#	33142
#	49476
#	61320
#	75572
#	91973
#	108468
#	127721
#	144112
#	159441
#	177631
#	191747
#	209061
#	227635
#	246794
#
# Disc length: 3547 seconds
#
# Revision: 1
# Processed by: cddbd v1.4PL0 Copyright (c) Steve Scherf et al.
# Submitted via: audiograbber 1.80
#
DISCID=d50dd910
DTITLE=Kenny Chesney - Greatest Hits
DYEAR=1900
DGENRE=
TTITLE0=I lost It
TTITLE1=Don't Happen Twice
TTITLE2=The Tin Man
TTITLE3=Fall In Love
TTITLE4=All I Need To Know
TTITLE5=For The First Time
TTITLE6=Me and You
TTITLE7=Back Where I Come From
TTITLE8=When I Close My Eyes
TTITLE9=She's Got It All
TTITLE10=That's Why I'm Here
TTITLE11=How Forever Feels
TTITLE12=You Had Me From Hello
TTITLE13=She Thinks My Tractor's Sexy
TTITLE14=What I Need to Do
TTITLE15=Baptism
EXTD=
EXTT0=
EXTT1=
EXTT2=
EXTT3=
EXTT4=
EXTT5=
EXTT6=
EXTT7=
EXTT8=
EXTT9=
EXTT10=
EXTT11=
EXTT12=
EXTT13=
EXTT14=
EXTT15=
PLAYORDER=
